<svg width="58" height="59" viewBox="0 0 58 59" fill="none" xmlns="http://www.w3.org/2000/svg">
<path d="M34.8163 46.5045C42.3104 38.5351 45.7914 27.4971 46.9221 23.1481C47.8977 27.9607 43.0421 40.2349 40.5588 45.1137C44.5498 47.8291 49.6493 43.2814 52.3764 37.4754C55.0814 31.6474 55.7022 23.1481 48.6294 13.3243C42.7095 15.7527 38.7629 19.0641 36.1466 22.0223C37.5213 26.0401 37.2996 31.537 36.8118 33.1485C36.2353 29.0203 35.1711 25.9518 34.2842 24.2299C30.9584 17.6512 18.4313 9.65968 4.28569 10.1233C3.1771 23.7 4.13049 50.6106 29.5838 47.5641C28.5417 37.8949 18.5644 22.3534 13.5313 17.1214C23.4422 23.3468 32.3109 41.0076 34.8163 46.5045Z" fill="white"/>
</svg>
